<svg version="1" xmlns="http://www.w3.org/2000/svg" width="346.667" height="346.667" viewBox="0 0 260.000000 260.000000"><path d="M0 130v130h260V0H0v130zm175.7-72.5c1.7 1.2 2.3 2.8 2.5 6.7l.3 5.2 6 2.1c16.8 5.7 28.8 16.2 36.2 31.4 4.5 9.2 5.5 13.2 6 25.1.9 19.7-7.9 38.2-24.3 50.8-4.9 3.7-15.6 8.9-20 9.8-3 .5-3.2.9-3.6 5.9-.8 9.2 5.6 8.5-73.4 8.5-63.5 0-69.9-.1-71.6-1.7-1.7-1.5-1.8-5.1-1.8-71.9V59.1l2.2-1.5c2-1.4 10.4-1.6 70.8-1.6 59.7 0 68.8.2 70.7 1.5z"/><path d="M44.2 129.2l.3 60.3 60.8.3 60.7.2V69H43.9l.3 60.2zm73.3-10.5c.4 20.8.4 39.4 0 41.3-1.5 8.2-11 16.7-20.6 18.5-4.7.9-11.3-1.8-14.1-5.8-3.2-4.5-2.9-11.6.7-16.3 5.9-7.7 18.7-14 23.9-11.6 1.3.6 2.7.8 3 .5.3-.4.6-14.7.6-31.8s.3-31.5.7-31.8c.3-.4 1.6-.7 2.8-.7h2.2l.8 37.7z"/><path d="M101.5 151.7c-8 1.7-14.5 7.7-14.5 13.3 0 2.7 4.6 7 7.5 7 6.7 0 16.6-8.5 16.5-14.2-.1-3.7-5.3-7-9.5-6.1zM178.7 83.7c-.4.3-.7 5.6-.7 11.6v10.9l4.9 5.4c4.9 5.4 8.1 12.3 8.1 17.6 0 4.9-3.8 13-8.3 17.7l-4.4 4.6.5 12.2.4 12.1 2.7-1c8.2-3.3 12.3-5.9 18.1-11.8 23.7-23.5 16.9-62.2-13.3-76.8-7.3-3.5-7.1-3.5-8-2.5zm28.7 42.9c2.1.8 2.1 9.3.1 15-3.5 10.2-9.7 18.4-13.8 18.4-4.1 0-4.1-2.8-.1-7.7 4.5-5.5 8.3-14.5 8.4-19.5 0-2 .7-4.4 1.6-5.2 1.8-1.8 1.7-1.8 3.8-1z"/><path d="M178 129.4c0 6.3.4 11.7.9 12 1.4.9 5.1-8 5.1-12.1-.1-4.2-2.8-10.4-4.7-11.1-1-.3-1.3 2.4-1.3 11.2z"/></svg>